<?xml version="1.0" standalone="no"?>
<!DOCTYPE svg PUBLIC "-//W3C//DTD SVG 20010904//EN"
 "http://www.w3.org/TR/2001/REC-SVG-20010904/DTD/svg10.dtd">
<svg version="1.0" xmlns="http://www.w3.org/2000/svg"
 width="512.000000pt" height="512.000000pt" viewBox="0 0 512.000000 512.000000"
 preserveAspectRatio="xMidYMid meet">
<metadata>
Created by potrace 1.11, written by Peter Selinger 2001-2013
</metadata>
<g transform="translate(0.000000,512.000000) scale(0.100000,-0.100000)"
fill="#000000" stroke="none">
<path d="M1900 4952 c-30 -8 -56 -16 -57 -17 -1 0 7 -35 19 -78 24 -86 13 -82
123 -48 l52 16 -20 73 c-23 81 -22 81 -117 54z"/>
<path d="M3105 4900 c-10 -39 -15 -73 -13 -76 6 -5 142 -44 145 -41 3 4 43
151 40 152 -7 5 -126 35 -139 35 -11 0 -21 -20 -33 -70z"/>
<path d="M2480 4867 c-39 -12 -117 -86 -141 -133 -15 -28 -22 -32 -80 -38
-105 -11 -244 -43 -383 -90 -153 -51 -306 -120 -306 -137 0 -9 53 -111 66
-128 2 -2 45 15 95 38 164 77 340 127 580 166 20 3 29 -2 40 -22 25 -46 97
-100 150 -113 103 -25 219 23 264 111 l14 26 87 -14 c855 -137 1530 -812 1667
-1667 l14 -87 -27 -14 c-48 -25 -98 -93 -111 -151 -23 -101 26 -215 111 -259
l27 -14 -14 -88 c-135 -852 -813 -1530 -1667 -1666 l-87 -14 -14 27 c-25 48
-93 98 -151 111 -101 23 -215 -26 -259 -111 -17 -33 -14 -33 -190 1 -138 27
-279 72 -413 131 -62 28 -114 49 -116 47 -13 -18 -66 -121 -66 -129 0 -15 143
-80 271 -125 135 -47 273 -81 389 -97 89 -12 95 -15 109 -43 43 -83 138 -145
221 -145 85 0 179 61 215 139 15 35 23 41 48 41 59 0 285 52 416 96 649 216
1163 736 1375 1391 37 115 86 338 86 391 0 24 6 32 32 43 81 33 148 132 148
219 0 87 -67 186 -148 219 -26 11 -32 19 -32 43 0 56 -50 280 -90 402 -212
648 -725 1165 -1371 1380 -131 44 -357 96 -416 96 -25 0 -33 6 -48 41 -23 51
-92 112 -143 127 -47 14 -105 14 -152 -1z m114 -158 c58 -27 55 -115 -5 -139
-63 -26 -125 36 -100 99 19 44 60 60 105 40z m2080 -2080 c58 -27 55 -115 -5
-139 -63 -26 -125 36 -100 99 19 44 60 60 105 40z m-2080 -2080 c58 -27 55
-115 -5 -139 -63 -26 -125 36 -100 99 19 44 60 60 105 40z"/>
<path d="M1318 4708 l-67 -40 27 -47 c15 -26 34 -57 42 -69 l15 -22 67 40 67
40 -40 70 c-23 39 -41 70 -42 69 -1 -1 -32 -19 -69 -41z"/>
<path d="M3688 4675 l-36 -65 66 -40 67 -39 15 21 c8 12 27 43 42 69 l28 48
-64 35 c-35 20 -68 36 -73 36 -4 0 -25 -30 -45 -65z"/>
<path d="M4200 4315 l-55 -55 58 -58 57 -57 55 55 55 55 -58 58 -58 57 -54
-55z"/>
<path d="M320 4227 c-49 -16 -133 -102 -148 -153 -17 -60 -17 -2968 0 -3028
16 -55 99 -138 154 -154 31 -9 335 -12 1273 -12 l1232 0 23 23 c19 19 25 45
45 212 12 105 25 197 27 207 3 9 16 19 30 22 13 4 67 25 119 47 l95 41 162
-126 c126 -98 168 -126 192 -126 26 0 57 27 223 193 166 166 193 197 193 223
0 24 -28 66 -126 192 l-126 162 41 95 c22 52 43 106 47 120 8 30 2 29 229 56
187 22 208 27 225 59 14 25 14 535 0 560 -17 32 -38 37 -225 59 -227 27 -221
26 -229 56 -4 14 -25 68 -47 120 l-41 95 126 162 c98 126 126 168 126 192 0
26 -27 57 -193 223 -166 166 -197 193 -223 193 -24 0 -66 -28 -192 -126 l-162
-126 -95 41 c-52 22 -106 43 -119 47 -14 3 -27 13 -30 22 -2 10 -15 102 -27
207 -20 167 -26 193 -45 212 l-23 23 -1238 -1 c-872 -1 -1248 -4 -1273 -12z
m2033 -158 c14 -6 30 -22 36 -36 16 -34 16 -2912 0 -2946 -6 -14 -22 -30 -36
-36 -17 -8 -306 -11 -999 -11 l-976 0 -29 29 -29 29 0 1456 c0 1048 3 1462 11
1480 6 13 21 29 33 34 31 15 1956 16 1989 1z m386 -76 c6 -49 16 -134 22 -191
15 -131 24 -142 132 -177 45 -15 122 -46 170 -71 49 -24 100 -44 115 -44 19 0
73 36 181 120 85 66 155 120 155 120 1 0 54 -53 119 -118 l118 -118 -120 -155
c-82 -105 -121 -162 -121 -180 0 -14 20 -66 44 -115 25 -49 56 -126 71 -170
14 -45 35 -90 46 -100 15 -13 63 -23 197 -40 97 -13 185 -23 195 -24 15 0 17
-15 17 -170 0 -155 -2 -170 -17 -170 -10 -1 -98 -11 -195 -24 -134 -17 -182
-27 -197 -40 -11 -10 -34 -60 -51 -110 -17 -51 -48 -127 -70 -170 -22 -43 -40
-90 -40 -104 0 -19 37 -74 121 -181 l120 -155 -118 -118 c-65 -65 -118 -118
-119 -118 -1 0 -71 54 -155 120 -105 82 -162 120 -180 120 -14 0 -66 -20 -115
-44 -49 -25 -126 -56 -171 -71 -108 -35 -117 -46 -132 -177 -6 -57 -16 -142
-22 -191 l-12 -87 -89 0 c-78 0 -89 2 -84 16 3 9 6 170 6 358 l0 343 78 6
c258 20 507 188 631 427 70 134 86 204 86 370 0 166 -16 236 -86 370 -124 239
-373 407 -631 427 l-78 6 0 343 c0 188 -3 349 -6 358 -5 14 6 16 84 16 l89 0
12 -87z m-44 -808 c287 -60 505 -329 505 -625 0 -236 -140 -463 -350 -568 -82
-41 -191 -71 -257 -72 l-33 0 0 640 0 640 33 0 c17 0 64 -7 102 -15z"/>
<path d="M639 3817 c-18 -12 -44 -38 -56 -56 -23 -33 -23 -39 -23 -321 0 -282
0 -288 23 -321 12 -18 38 -44 56 -56 l34 -23 687 0 687 0 34 23 c18 12 44 38
56 56 23 33 23 39 23 321 0 282 0 288 -23 321 -12 18 -38 44 -56 56 l-34 23
-687 0 -687 0 -34 -23z m1361 -377 l0 -240 -640 0 -640 0 0 240 0 240 640 0
640 0 0 -240z"/>
<path d="M960 3440 l0 -80 80 0 80 0 0 80 0 80 -80 0 -80 0 0 -80z"/>
<path d="M1280 3440 l0 -80 80 0 80 0 0 80 0 80 -80 0 -80 0 0 -80z"/>
<path d="M1600 3440 l0 -80 80 0 80 0 0 80 0 80 -80 0 -80 0 0 -80z"/>
<path d="M639 2857 c-18 -12 -44 -38 -56 -56 l-23 -34 0 -687 0 -687 23 -34
c12 -18 38 -44 56 -56 l34 -23 687 0 687 0 34 23 c18 12 44 38 56 56 l23 34 0
687 0 687 -23 34 c-12 18 -38 44 -56 56 l-34 23 -687 0 -687 0 -34 -23z m401
-297 l0 -160 -160 0 -160 0 0 160 0 160 160 0 160 0 0 -160z m480 0 l0 -160
-160 0 -160 0 0 160 0 160 160 0 160 0 0 -160z m480 0 l0 -160 -160 0 -160 0
0 160 0 160 160 0 160 0 0 -160z m-960 -480 l0 -160 -160 0 -160 0 0 160 0
160 160 0 160 0 0 -160z m480 0 l0 -160 -160 0 -160 0 0 160 0 160 160 0 160
0 0 -160z m480 0 l0 -160 -160 0 -160 0 0 160 0 160 160 0 160 0 0 -160z
m-960 -480 l0 -160 -160 0 -160 0 0 160 0 160 160 0 160 0 0 -160z m480 0 l0
-160 -160 0 -160 0 0 160 0 160 160 0 160 0 0 -160z m480 0 l0 -160 -160 0
-160 0 0 160 0 160 160 0 160 0 0 -160z"/>
<path d="M4597 3828 l-68 -39 21 -35 c11 -19 29 -49 40 -68 l21 -35 62 37 c34
20 64 37 67 39 4 4 -60 131 -70 138 -3 2 -36 -15 -73 -37z"/>
<path d="M4855 3259 c-38 -11 -70 -21 -72 -22 -3 -3 36 -139 41 -145 3 -2 37
3 76 13 47 12 70 22 70 32 0 23 -33 143 -40 142 -3 0 -36 -9 -75 -20z"/>
<path d="M4810 1988 c-6 -24 -15 -57 -20 -74 l-8 -32 67 -17 c36 -10 71 -20
76 -22 10 -3 45 106 45 140 0 8 -23 20 -60 30 -84 24 -88 23 -100 -25z"/>
<path d="M4571 1402 l-40 -67 21 -15 c12 -8 43 -27 69 -42 l48 -28 40 70 39
69 -69 40 -69 40 -39 -67z"/>
<path d="M4197 922 c-26 -26 -47 -52 -47 -57 0 -5 23 -33 52 -62 l52 -53 58
57 58 57 -52 53 c-29 29 -57 53 -63 53 -6 0 -32 -22 -58 -48z"/>
<path d="M1313 558 c-11 -18 -30 -49 -41 -69 l-22 -36 70 -41 69 -40 40 69 40
68 -35 21 c-19 11 -49 29 -68 40 l-34 20 -19 -32z"/>
<path d="M3718 549 l-67 -39 40 -69 40 -69 69 40 69 40 -27 47 c-15 26 -34 57
-42 69 l-15 21 -67 -40z"/>
<path d="M1867 277 c-9 -35 -19 -70 -22 -78 -4 -11 13 -19 70 -34 41 -10 77
-16 79 -14 3 2 13 36 24 75 l20 72 -66 17 c-37 10 -72 20 -78 22 -7 2 -18 -22
-27 -60z"/>
<path d="M3161 320 c-35 -11 -66 -21 -69 -24 -10 -10 32 -146 45 -146 13 0
134 31 141 36 2 2 -1 18 -6 36 -6 18 -16 52 -22 76 -6 23 -14 42 -18 41 -4 0
-36 -9 -71 -19z"/>
</g>
</svg>
